<?xml version="1.0" standalone="no"?>
<!DOCTYPE svg PUBLIC "-//W3C//DTD SVG 20010904//EN"
 "http://www.w3.org/TR/2001/REC-SVG-20010904/DTD/svg10.dtd">
<svg version="1.0" xmlns="http://www.w3.org/2000/svg"
 width="255.000000pt" height="228.000000pt" viewBox="0 0 255.000000 228.000000"
 preserveAspectRatio="xMidYMid meet">
<metadata>
Created by potrace 1.10, written by Peter Selinger 2001-2011
</metadata>
<g transform="translate(0.000000,228.000000) scale(0.100000,-0.100000)"
fill="#000000" stroke="none">
<path d="M793 2103 c0 -8 5 -9 19 -2 10 5 24 7 31 3 7 -4 8 -3 4 2 -13 14 -54
12 -54 -3z"/>
<path d="M867 2089 c-70 -16 -181 -76 -240 -127 -136 -121 -260 -191 -467
-262 -134 -46 -133 -54 2 -10 159 50 340 147 443 236 99 85 194 136 296 158
35 8 51 14 34 14 -16 0 -47 -4 -68 -9z"/>
<path d="M1140 2082 c0 -14 141 -132 158 -132 133 -2 532 -5 532 -3 0 3 -201
79 -265 101 -87 29 -425 56 -425 34z m337 -37 c23 -2 59 -12 80 -21 38 -16 58
-22 79 -23 23 -2 22 -26 -1 -26 -13 0 -21 4 -17 9 3 5 -2 7 -10 3 -38 -14
-258 -20 -302 -7 -39 11 -96 56 -96 76 0 6 160 -1 267 -11z"/>
<path d="M1263 2015 c0 -8 4 -12 9 -9 5 3 6 10 3 15 -9 13 -12 11 -12 -6z"/>
<path d="M948 2059 c-26 -4 -70 -15 -98 -24 l-51 -17 30 -33 c16 -19 32 -44
36 -56 7 -22 8 -22 173 -16 91 4 167 9 170 12 2 2 -10 22 -27 44 -60 75 -135
104 -233 90z m94 -36 c0 -10 2 -24 2 -32 1 -8 8 -16 16 -18 12 -4 12 -3 1 5
-10 8 -9 12 8 24 11 8 18 19 13 23 -4 5 8 -2 26 -14 17 -12 32 -25 32 -28 0
-3 -7 0 -14 7 -11 9 -19 9 -33 0 -16 -10 -16 -10 3 -5 13 3 26 -1 34 -10 7 -8
16 -13 20 -10 5 3 12 0 16 -6 4 -8 3 -9 -4 -5 -7 4 -12 3 -12 -3 0 -6 -23 -9
-55 -7 -30 2 -55 1 -55 -3 0 -3 -33 -6 -73 -7 l-74 0 -27 38 -27 37 28 7 c15
3 39 9 53 13 14 4 46 9 73 10 38 1 47 -2 49 -16z m28 -3 c0 -5 -4 -10 -10 -10
-5 0 -10 5 -10 10 0 6 5 10 10 10 6 0 10 -4 10 -10z"/>
<path d="M860 1999 c0 -5 5 -7 10 -4 6 3 10 8 10 11 0 2 -4 4 -10 4 -5 0 -10
-5 -10 -11z"/>
<path d="M1780 2036 c0 -2 7 -7 16 -10 8 -3 12 -2 9 4 -6 10 -25 14 -25 6z"/>
<path d="M714 1972 c-57 -37 -91 -69 -83 -76 2 -2 34 0 71 5 37 4 83 6 102 4
19 -3 37 -1 40 4 6 8 -44 84 -62 95 -5 3 -36 -12 -68 -32z m75 -11 c13 -23 -8
-34 -46 -25 -20 5 -24 4 -18 -6 6 -9 4 -11 -5 -5 -10 6 -7 14 14 32 33 28 42
29 55 4z"/>
<path d="M497 1953 c-9 -8 12 -33 27 -33 6 0 3 5 -7 11 -9 6 -15 14 -12 20 7
10 2 12 -8 2z"/>
<path d="M2098 1953 c7 -3 16 -2 19 1 4 3 -2 6 -13 5 -11 0 -14 -3 -6 -6z"/>
<path d="M483 1917 c0 -8 6 -14 14 -14 9 0 10 4 2 14 -6 7 -12 13 -14 13 -1 0
-2 -6 -2 -13z"/>
<path d="M1575 1919 c144 -9 384 -50 413 -71 36 -25 77 -64 105 -96 35 -43 34
-35 -4 34 -22 38 -28 59 -21 66 6 6 54 9 126 7 121 -4 121 2 1 27 -160 32
-307 44 -528 43 -221 -2 -221 -2 -92 -10z m459 -32 c2 3 10 2 16 -2 8 -5 8
-11 -1 -21 -9 -11 -15 -11 -25 -3 -8 6 -14 8 -14 5 0 -4 -9 -2 -20 4 -30 16
-24 30 9 20 16 -4 32 -6 35 -3z"/>
<path d="M1268 1893 c7 -3 16 -2 19 1 4 3 -2 6 -13 5 -11 0 -14 -3 -6 -6z"/>
<path d="M1750 1835 c-27 -33 54 -98 98 -79 9 4 21 8 27 8 5 1 11 10 12 21 3
20 3 20 -6 0 -8 -16 -10 -17 -10 -3 -1 9 -13 26 -27 37 -15 12 -23 21 -18 21
4 0 18 -10 31 -22 13 -12 23 -17 23 -11 0 34 -106 56 -130 28z m67 -17 c7 -1
10 -5 7 -10 -3 -4 3 -8 13 -9 11 0 13 -3 5 -6 -6 -2 -10 -8 -8 -12 13 -20 -27
-4 -50 20 l-27 28 24 -5 c13 -3 29 -6 36 -6z"/>
<path d="M1896 1834 c-8 -21 22 -70 51 -83 57 -26 89 -2 59 44 -9 14 -14 25
-11 25 3 0 14 -15 25 -32 11 -19 20 -26 20 -17 0 16 -37 56 -55 60 -5 1 -20 5
-33 10 -34 13 -49 11 -56 -7z m56 -21 c17 6 44 -31 31 -44 -10 -10 -63 36 -63
54 0 8 3 7 9 -2 5 -8 15 -11 23 -8z"/>
<path d="M2113 1843 c-13 -2 -23 -9 -23 -15 0 -19 50 -97 68 -107 20 -11 217
-19 227 -9 4 4 -1 29 -10 57 -16 48 -19 51 -68 66 -47 14 -143 18 -194 8z
m143 -11 c-3 -4 8 -13 25 -19 22 -8 29 -8 29 0 0 8 3 7 9 -1 4 -8 11 -13 15
-13 3 1 6 -2 5 -6 -1 -5 -5 -7 -10 -5 -10 2 -12 -12 -2 -21 3 -4 12 -2 19 3 9
8 12 6 10 -7 -2 -27 -11 -30 -89 -27 -80 4 -122 12 -113 21 3 3 -1 11 -9 17
-14 11 -11 60 4 52 5 -3 98 8 109 13 2 0 1 -3 -2 -7z"/>
<path d="M2387 1773 c17 -42 33 -66 41 -59 6 7 -38 96 -48 96 -5 0 -2 -17 7
-37z"/>
<path d="M1536 1788 c3 -5 10 -6 15 -3 13 9 11 12 -6 12 -8 0 -12 -4 -9 -9z"/>
<path d="M1465 1769 c66 -25 95 -79 95 -176 0 -100 -37 -175 -100 -203 -23
-10 -23 -10 8 -5 19 3 46 14 62 25 61 44 84 191 43 282 -24 52 -53 75 -104 83
l-34 5 30 -11z"/>
<path d="M1586 1733 c-6 -14 -5 -15 5 -6 7 7 10 15 7 18 -3 3 -9 -2 -12 -12z"/>
<path d="M645 1680 c11 -40 34 -69 58 -74 32 -7 562 -18 556 -12 -3 3 -117 10
-254 16 -138 7 -266 16 -287 21 -24 6 -44 20 -58 42 -19 28 -20 29 -15 7z"/>
<path d="M712 1570 c-29 -5 -56 -11 -59 -14 -8 -8 334 -5 467 4 91 6 76 7
-112 8 -119 1 -222 4 -230 6 -7 2 -37 0 -66 -4z"/>
<path d="M1650 1516 l0 -45 58 -8 c31 -4 194 -8 362 -8 307 1 373 7 399 39 16
19 3 49 -18 40 -59 -24 -184 -32 -431 -25 -132 3 -167 10 -183 37 -6 10 -33
14 -97 14 l-90 0 0 -44z m158 6 c2 -6 9 -9 16 -6 7 3 19 -2 26 -11 7 -8 22
-15 34 -15 17 0 18 -2 6 -9 -8 -6 -19 -7 -24 -3 -6 3 -27 6 -46 7 -19 0 -41 4
-49 9 -10 7 -12 6 -6 -4 6 -10 4 -12 -9 -7 -10 4 -31 7 -47 7 -22 0 -29 5 -29
19 0 11 6 21 12 23 24 8 112 0 116 -10z m182 -42 c0 -5 -16 -10 -35 -10 -19 0
-35 5 -35 10 0 6 16 10 35 10 19 0 35 -4 35 -10z m30 6 c0 -3 -4 -8 -10 -11
-5 -3 -10 -1 -10 4 0 6 5 11 10 11 6 0 10 -2 10 -4z m77 -12 c-3 -3 -12 -4
-19 -1 -8 3 -5 6 6 6 11 1 17 -2 13 -5z"/>
<path d="M1791 1504 c0 -11 3 -14 6 -6 3 7 2 16 -1 19 -3 4 -6 -2 -5 -13z"/>
<path d="M1830 1500 c0 -5 5 -10 11 -10 5 0 7 5 4 10 -3 6 -8 10 -11 10 -2 0
-4 -4 -4 -10z"/>
<path d="M1602 1506 c-3 -40 -38 -93 -74 -112 -41 -21 -29 -28 35 -20 42 6 61
14 83 37 l28 29 -32 0 c-30 0 -31 2 -35 48 -2 26 -4 34 -5 18z"/>
<path d="M421 1515 c19 -18 425 -63 614 -68 222 -5 177 5 -105 23 -164 10
-401 33 -480 46 -19 3 -32 3 -29 -1z"/>
<path d="M1460 1466 c0 -2 8 -10 18 -17 15 -13 16 -12 3 4 -13 16 -21 21 -21
13z"/>
<path d="M2030 1418 c0 -3 25 -19 55 -34 63 -30 107 -29 175 6 73 37 62 42
-89 38 -77 -2 -141 -6 -141 -10z m160 -22 c0 -9 -39 -13 -51 -5 -10 6 -4 9 19
9 17 0 32 -2 32 -4z"/>
<path d="M1656 1373 c-6 -14 -5 -15 5 -6 7 7 10 15 7 18 -3 3 -9 -2 -12 -12z"/>
<path d="M1115 1171 c-38 -13 -72 -26 -74 -27 -2 -2 4 -43 13 -91 20 -101 24
-124 31 -173 3 -19 10 -59 16 -87 10 -51 12 -53 43 -53 l33 0 7 226 c4 124 6
227 4 228 -1 1 -34 -9 -73 -23z m50 -21 c3 -5 1 -10 -4 -10 -6 0 -11 5 -11 10
0 6 2 10 4 10 3 0 8 -4 11 -10z m-14 -30 c-3 -3 -7 -16 -7 -30 l-2 -24 19 23
c11 13 19 18 19 13 0 -6 -5 -14 -10 -17 -6 -4 -8 -10 -5 -14 2 -5 -6 -8 -18
-7 -16 1 -22 7 -22 25 0 13 -6 26 -13 29 -12 4 -12 0 -1 -19 7 -13 12 -26 11
-27 -2 -8 -38 -31 -47 -31 -5 0 -2 4 7 9 20 12 16 47 -8 65 -13 9 -14 14 -4
20 9 5 11 4 6 -3 -9 -15 -1 -15 25 -2 13 7 19 7 19 0 0 -5 4 -10 10 -10 5 0 6
8 3 17 -6 15 -5 16 9 3 9 -8 13 -17 9 -20z m3 -103 c3 -13 0 -17 -11 -13 -8 3
-19 6 -24 6 -5 0 -9 6 -9 14 0 21 38 15 44 -7z m-54 -37 c0 -5 7 -7 15 -4 8 4
15 2 15 -4 0 -6 -6 -13 -12 -15 -9 -4 -8 -6 3 -6 8 -1 20 4 26 10 8 8 13 8 18
0 3 -6 3 -11 -2 -10 -15 4 -43 -13 -37 -22 3 -5 10 -7 15 -4 5 4 9 1 9 -4 0
-6 -5 -11 -10 -11 -7 0 -8 -14 -4 -37 4 -22 3 -34 -2 -30 -5 5 -10 13 -10 18
-1 5 -2 14 -3 20 0 5 -5 7 -11 4 -5 -3 -10 -2 -10 4 0 5 5 11 12 13 8 3 8 12
-3 36 -8 18 -17 32 -21 32 -5 0 -8 5 -8 10 0 6 5 10 10 10 6 0 10 -4 10 -10z
m70 -84 c0 -11 -19 -15 -25 -6 -3 5 1 10 9 10 9 0 16 -2 16 -4z m-7 -39 c3 -8
2 -20 -3 -26 -5 -9 -7 -4 -7 13 0 29 2 32 10 13z m-23 -44 c0 -10 -4 -14 -8
-8 -4 6 -11 13 -16 18 -5 4 -2 7 7 7 10 0 17 -8 17 -17z m25 -23 c3 -5 1 -10
-4 -10 -6 0 -11 5 -11 10 0 6 2 10 4 10 3 0 8 -4 11 -10z m-32 -15 c-3 -9 -8
-14 -10 -11 -3 3 -2 9 2 15 9 16 15 13 8 -4z m32 -15 c3 -5 1 -10 -4 -10 -6 0
-11 5 -11 10 0 6 2 10 4 10 3 0 8 -4 11 -10z"/>
<path d="M780 1145 c-26 -31 22 -75 55 -51 26 19 13 66 -19 66 -13 0 -29 -7
-36 -15z"/>
<path d="M874 1145 c3 -9 2 -13 -4 -10 -6 3 -10 -3 -10 -14 0 -33 34 -44 62
-21 19 15 21 22 12 37 -15 24 -69 32 -60 8z m26 -30 c-7 -9 -15 -13 -19 -10
-3 3 1 10 9 15 21 14 24 12 10 -5z"/>
<path d="M1353 1074 c-40 -20 -59 -48 -65 -97 -4 -40 1 -44 34 -26 21 11 21
12 3 25 -10 8 -14 14 -7 14 6 0 9 9 7 19 -3 15 0 18 12 14 12 -5 15 -2 10 10
-4 12 -2 14 10 10 12 -5 14 -3 8 8 -7 12 -6 12 7 1 14 -11 18 -10 31 8 12 18
16 18 26 6 7 -8 18 -13 25 -10 6 2 20 -3 31 -11 19 -16 19 -16 -2 -6 -28 14
-33 14 -33 -1 0 -6 3 -9 6 -5 7 6 64 -19 64 -29 0 -3 -4 -2 -10 1 -5 3 -10 1
-10 -4 0 -6 5 -11 11 -11 7 0 9 -9 6 -22 -4 -12 -1 -29 6 -37 10 -12 8 -13
-15 -7 -18 4 -28 2 -28 -4 0 -6 4 -9 8 -6 4 2 8 -8 7 -23 0 -22 -4 -27 -17
-23 -20 5 -25 22 -7 22 6 0 9 6 7 13 -3 6 -14 12 -26 12 -36 0 -46 19 -31 54
13 29 22 35 42 32 4 0 7 4 7 10 0 6 -8 8 -19 4 -14 -4 -18 -1 -17 16 0 12 -6
24 -14 26 -13 4 -13 3 0 -6 14 -10 7 -16 -15 -12 -5 1 -2 -5 7 -15 15 -16 15
-20 2 -46 -9 -17 -13 -36 -10 -43 2 -7 -2 -16 -10 -19 -9 -4 -14 2 -15 17 -1
19 -2 19 -6 3 -3 -10 -14 -28 -25 -40 -12 -12 -18 -15 -14 -9 11 19 -17 54
-34 43 -11 -7 -11 -14 -1 -38 18 -44 53 -72 113 -93 49 -16 54 -16 71 -1 17
15 17 15 11 -3 -6 -14 -4 -16 7 -10 11 7 11 5 -1 -10 -8 -10 -10 -16 -3 -12
19 12 26 -12 8 -29 -9 -9 -14 -23 -11 -31 3 -8 0 -24 -6 -36 -7 -12 -11 -26
-9 -32 1 -5 -8 0 -21 13 -14 12 -28 20 -31 17 -4 -3 -3 1 3 7 8 9 13 9 22 0 7
-7 16 -12 21 -12 5 0 0 8 -12 18 -20 17 -20 17 -2 57 17 39 17 41 0 42 -12 1
-16 -3 -12 -15 4 -13 3 -14 -5 -3 -9 13 -37 -2 -95 -50 -5 -4 12 -21 37 -39
25 -18 43 -37 39 -43 -4 -6 -1 -7 6 -3 7 5 21 0 32 -10 10 -9 20 -15 22 -13 6
9 47 100 47 104 0 2 -8 6 -17 8 -14 4 -13 5 3 6 12 0 25 8 28 17 8 22 8 24 -8
24 -11 0 -15 17 -18 66 -1 36 0 71 4 78 5 6 8 0 8 -15 0 -15 7 -30 15 -33 10
-4 15 -1 13 9 -2 7 0 14 5 15 17 1 57 -13 57 -21 0 -5 5 -9 12 -9 9 0 9 3 0
12 -15 15 -16 32 -2 23 6 -3 10 1 10 9 0 8 4 18 10 21 6 4 7 -1 4 -12 -4 -13
0 -11 16 7 12 14 19 20 16 14 -3 -7 2 -18 11 -25 15 -12 16 -12 10 4 -3 9 -2
17 3 17 6 0 10 -12 11 -27 0 -24 2 -25 8 -9 7 19 8 19 13 -2 4 -13 1 -22 -5
-23 -7 0 2 -7 18 -14 17 -8 25 -14 18 -15 -7 0 -10 -7 -6 -17 5 -12 3 -14 -8
-9 -8 4 -5 0 5 -8 15 -12 23 -13 30 -5 8 8 7 13 -1 16 -17 6 -16 23 1 23 10 0
13 -11 11 -40 -2 -22 1 -40 6 -40 5 0 9 9 9 20 0 11 5 20 11 20 5 0 7 -4 4
-10 -3 -5 -2 -10 3 -10 8 0 22 22 22 35 0 2 -9 2 -20 0 -11 -2 -18 0 -15 5 6
9 24 8 43 -3 14 -9 12 18 -2 42 -7 10 -5 12 5 6 8 -4 1 5 -16 19 -20 17 -37
24 -52 21 -13 -3 -23 -1 -23 5 0 5 12 10 28 11 18 1 10 5 -28 15 -30 7 -61 11
-68 9 -7 -3 -10 0 -6 6 7 13 83 6 113 -10 18 -10 19 -8 15 26 -4 35 -4 36 7
13 7 -14 11 -29 10 -34 -1 -4 3 -14 9 -21 9 -11 6 -12 -12 -7 -20 5 -21 3 -10
-10 7 -9 22 -13 36 -11 24 5 29 -7 15 -32 -4 -5 -4 -19 -2 -30 12 -57 11 -63
-15 -74 -20 -9 -27 -9 -33 1 -6 9 -9 9 -14 -4 -6 -14 -12 -13 -56 9 -32 17
-46 30 -40 36 6 6 2 16 -12 29 -15 13 -18 21 -10 24 7 3 9 12 6 20 -3 7 -9 11
-14 8 -5 -3 -9 2 -9 10 0 9 -4 16 -10 16 -15 0 -12 -16 5 -34 13 -13 13 -16 0
-30 -19 -19 -20 -32 -1 -17 8 7 17 8 20 3 6 -10 -21 -21 -59 -26 -10 -2 -26 6
-35 16 -14 18 -15 18 -15 -11 -1 -18 3 -27 9 -23 16 9 46 10 46 0 0 -4 -3 -8
-7 -9 -5 0 -18 -2 -30 -5 -22 -4 -50 26 -36 40 3 3 1 6 -7 6 -9 0 -10 3 -1 13
6 8 8 17 4 20 -10 10 3 8 32 -5 14 -6 25 -17 25 -24 0 -8 6 -11 15 -8 8 4 15
15 15 26 0 10 -5 16 -10 13 -6 -4 -8 -11 -5 -16 4 -5 -10 0 -29 12 -35 20 -62
18 -50 -4 5 -8 3 -8 -7 1 -22 21 -29 14 -28 -30 l2 -43 6 35 c6 33 7 34 14 10
4 -14 7 -35 7 -47 0 -21 5 -23 54 -23 49 0 54 2 60 26 l7 25 30 -25 c17 -14
35 -26 40 -26 6 0 17 -7 25 -15 32 -32 112 -9 157 44 76 91 23 228 -92 239
-44 4 -59 0 -125 -36 -51 -28 -90 -41 -123 -43 l-48 -3 -3 43 c-4 54 -23 85
-67 105 -42 20 -81 20 -122 0z m555 -121 c7 -7 10 -13 5 -13 -5 0 -9 -9 -9
-20 0 -11 6 -20 12 -20 30 0 28 -84 -2 -87 -10 -2 -13 0 -6 3 6 3 12 10 12 15
0 6 -4 8 -9 4 -5 -3 -12 -1 -15 4 -4 5 -2 12 4 16 6 4 7 11 4 17 -4 7 -2 8 4
4 7 -4 12 -3 12 3 0 5 -10 13 -21 16 -15 5 -18 10 -10 15 15 9 10 33 -8 41 -8
3 -15 13 -17 23 -2 15 0 15 14 4 9 -7 23 -19 30 -25z m-88 23 c0 -3 -4 -8 -10
-11 -5 -3 -10 -1 -10 4 0 6 5 11 10 11 6 0 10 -2 10 -4z m-377 -107 c-5 -18
-7 -19 -29 -4 -29 19 -44 19 -44 0 0 -8 -4 -15 -10 -15 -16 0 -12 27 6 34 8 3
12 11 8 17 -4 7 -3 9 2 6 6 -3 16 -2 24 3 20 12 49 -16 43 -41z m504 29 c-3
-8 -6 -5 -6 6 -1 11 2 17 5 13 3 -3 4 -12 1 -19z m-337 -5 c0 -7 -4 -13 -9
-13 -5 0 -11 6 -14 13 -3 8 1 14 9 14 8 0 14 -6 14 -14z m158 5 c-2 -9 7 -12
27 -11 20 2 25 -1 16 -6 -9 -6 -10 -11 -2 -15 6 -4 16 -4 23 0 6 4 8 3 4 -4
-3 -5 0 -12 6 -15 7 -2 9 -8 5 -13 -4 -5 -12 -2 -16 5 -5 7 -14 11 -19 7 -18
-11 -59 4 -59 22 -2 21 5 42 12 42 3 0 4 -6 3 -12z m-348 -64 c12 -30 13 -43
2 -28 -4 6 -16 16 -27 22 -20 11 -20 11 0 12 17 0 17 2 5 10 -10 7 -11 10 -2
10 7 0 17 -12 22 -26z m75 14 c4 4 3 -3 -4 -15 -6 -12 -17 -25 -24 -29 -9 -5
-9 -4 1 7 19 21 14 28 -15 23 -27 -5 -27 -4 -8 10 12 9 24 11 31 5 6 -5 14 -5
19 -1z m422 -70 c-3 -8 -6 -5 -6 6 -1 11 2 17 5 13 3 -3 4 -12 1 -19z m-477
-48 c0 -5 -2 -10 -4 -10 -3 0 -8 5 -11 10 -3 6 -1 10 4 10 6 0 11 -4 11 -10z
m-16 -40 c-12 -13 -16 -13 -23 -1 -15 24 -2 42 20 28 17 -10 17 -13 3 -27z"/>
<path d="M1401 901 c-8 -5 -9 -11 -3 -15 5 -3 12 1 16 9 6 17 6 18 -13 6z"/>
<path d="M1780 866 c0 -2 7 -7 16 -10 8 -3 12 -2 9 4 -6 10 -25 14 -25 6z"/>
<path d="M1405 700 c3 -5 8 -10 11 -10 2 0 4 5 4 10 0 6 -5 10 -11 10 -5 0 -7
-4 -4 -10z"/>
<path d="M881 1033 c-30 -13 -57 -25 -59 -28 -2 -2 8 -19 22 -38 14 -19 26
-36 26 -38 0 -2 -77 -3 -171 -1 l-171 3 21 -30 c12 -16 28 -46 37 -67 11 -27
18 -34 27 -25 6 6 15 11 21 11 5 0 1 -7 -10 -15 -18 -15 -18 -15 0 -13 10 2
21 -4 23 -12 4 -12 3 -12 -5 -2 -7 11 -10 11 -15 -2 -3 -8 -2 -18 3 -21 16
-10 11 -25 -7 -25 -13 0 -14 3 -6 8 9 6 7 11 -7 20 -12 7 -20 8 -20 2 0 -5 5
-10 10 -10 7 0 7 -6 2 -17 -5 -10 -7 -25 -4 -33 4 -12 2 -13 -9 -4 -8 5 -20 9
-26 8 -7 -1 -18 -2 -24 -3 -5 0 -7 -5 -4 -11 3 -5 1 -10 -4 -10 -14 0 -14 1 5
39 8 17 19 29 24 26 5 -3 14 3 20 14 7 13 16 18 28 14 16 -5 16 -4 -1 13 -11
12 -20 15 -25 8 -4 -5 -32 -28 -63 -50 l-57 -40 71 -50 c86 -59 87 -60 87 -41
0 9 10 37 21 64 17 37 21 67 21 133 l-1 85 38 -75 39 -75 58 -5 c93 -8 112 -3
119 32 8 32 -16 71 -29 49 -4 -6 -3 -11 2 -11 5 0 9 -6 9 -14 0 -8 -6 -12 -14
-9 -8 3 -13 0 -11 -7 2 -7 -3 -14 -10 -16 -7 -1 -8 0 -2 3 5 2 7 9 4 14 -3 6
-12 5 -22 -3 -15 -12 -16 -11 -4 4 8 10 19 16 25 15 7 -1 11 3 10 10 -1 6 4
17 12 23 8 7 15 23 15 36 0 12 5 26 10 29 7 4 8 -3 4 -22 -10 -42 -10 -45 2
-50 17 -6 34 104 26 173 l-7 62 -54 -25z m29 -23 c-12 -8 -12 -10 -1 -10 10 0
11 -3 2 -14 -9 -11 -8 -17 3 -29 8 -8 12 -17 9 -20 -7 -8 -27 13 -37 38 -5 15
-9 16 -15 6 -6 -9 -11 -10 -15 -3 -4 6 6 18 21 26 31 17 57 21 33 6z m-18
-129 c-7 -21 -19 -42 -28 -45 -9 -3 -12 -11 -8 -18 4 -7 4 -10 0 -6 -4 3 -21
-8 -38 -25 l-30 -32 20 30 c11 17 29 38 41 49 20 19 20 43 -1 30 -7 -4 -8 -2
-4 4 7 11 -6 17 -27 13 -5 -1 -6 3 -2 8 7 13 36 2 53 -18 10 -14 11 -12 8 11
-3 15 0 30 5 34 5 3 6 11 3 17 -5 9 -3 9 6 0 11 -10 11 -20 2 -52z m-268 17
c-3 -4 -1 -8 4 -8 6 0 13 -7 16 -16 5 -14 4 -15 -9 -4 -16 13 -18 10 -9 -14 3
-9 11 -13 17 -9 6 3 7 1 3 -5 -4 -7 -11 -12 -15 -12 -10 0 -24 39 -21 60 1 11
-3 9 -14 -5 -11 -14 -15 -15 -14 -5 2 8 7 18 11 21 12 9 37 7 31 -3z m178 0
c-18 -18 -14 -37 7 -33 21 4 23 -26 3 -33 -7 -2 -10 -8 -6 -13 3 -5 0 -9 -6
-9 -7 0 -10 6 -7 13 3 7 -1 21 -9 32 -12 16 -12 21 3 37 9 10 19 18 22 18 3 0
0 -5 -7 -12z m-50 -12 c4 -6 2 -19 -4 -30 -10 -18 -9 -19 3 -9 13 10 18 6 31
-22 10 -24 12 -37 5 -44 -13 -13 -47 -14 -47 -2 0 5 10 7 23 5 19 -3 18 -2 -4
8 -14 6 -31 20 -38 30 -7 11 -8 18 -3 14 5 -3 9 1 9 9 0 8 -3 14 -6 13 -3 0
-13 0 -21 1 -13 1 -13 2 0 11 13 8 12 10 -3 10 -10 0 -16 3 -14 8 7 11 61 9
69 -2z m-125 -172 c-3 -3 -12 -4 -19 -1 -8 3 -5 6 6 6 11 1 17 -2 13 -5z m-39
-29 c12 2 27 7 32 10 6 3 10 1 10 -5 0 -6 -10 -15 -22 -20 -13 -5 -17 -9 -10
-9 7 -1 10 -6 7 -12 -5 -6 -12 -4 -21 8 -7 10 -14 14 -14 8 0 -13 -20 16 -20
30 0 6 4 4 8 -2 4 -7 18 -11 30 -8z"/>
<path d="M885 990 c3 -5 8 -10 11 -10 2 0 4 5 4 10 0 6 -5 10 -11 10 -5 0 -7
-4 -4 -10z"/>
<path d="M800 850 c0 -5 5 -10 11 -10 5 0 7 5 4 10 -3 6 -8 10 -11 10 -2 0 -4
-4 -4 -10z"/>
<path d="M1361 1026 c-8 -10 -8 -16 2 -24 10 -8 13 -5 15 14 2 28 -1 30 -17
10z"/>
<path d="M1392 994 c-1 -15 2 -22 8 -19 12 7 13 32 2 39 -4 2 -9 -7 -10 -20z"/>
<path d="M1333 995 c0 -8 4 -15 9 -15 4 0 8 4 8 9 0 6 -4 12 -8 15 -5 3 -9 -1
-9 -9z"/>
<path d="M1985 969 c-4 -6 -5 -12 -2 -15 2 -3 7 2 10 11 7 17 1 20 -8 4z"/>
<path d="M1425 940 c3 -5 8 -10 11 -10 2 0 4 5 4 10 0 6 -5 10 -11 10 -5 0 -7
-4 -4 -10z"/>
<path d="M550 811 c0 -5 5 -13 10 -16 6 -3 10 -2 10 4 0 5 -4 13 -10 16 -5 3
-10 2 -10 -4z"/>
<path d="M1326 798 c3 -5 10 -6 15 -3 13 9 11 12 -6 12 -8 0 -12 -4 -9 -9z"/>
<path d="M1870 790 c-8 -5 -11 -10 -6 -10 5 0 3 -7 -4 -15 -11 -13 -10 -14 3
-10 11 5 33 46 24 45 -1 0 -9 -5 -17 -10z"/>
<path d="M1043 769 c-2 -23 3 -25 10 -4 4 8 3 16 -1 19 -4 3 -9 -4 -9 -15z"/>
<path d="M575 739 c-4 -6 -5 -12 -2 -15 2 -3 7 2 10 11 7 17 1 20 -8 4z"/>
<path d="M1295 740 c-3 -5 -5 -10 -3 -11 27 -6 39 -5 45 4 3 7 3 9 -2 5 -4 -4
-14 -3 -21 3 -8 7 -14 7 -19 -1z"/>
<path d="M1185 721 c-3 -5 -2 -12 3 -15 5 -3 9 1 9 9 0 17 -3 19 -12 6z"/>
<path d="M1105 711 c-6 -11 13 -26 22 -17 4 3 1 6 -6 6 -7 0 -9 5 -6 10 3 6 4
10 1 10 -3 0 -7 -4 -11 -9z"/>
<path d="M1465 690 c3 -5 8 -10 11 -10 2 0 4 5 4 10 0 6 -5 10 -11 10 -5 0 -7
-4 -4 -10z"/>
<path d="M1364 519 c-7 -12 15 -31 28 -23 4 3 8 12 8 20 0 17 -26 19 -36 3z"/>
<path d="M1410 516 c0 -8 4 -17 9 -20 11 -7 33 18 24 27 -12 12 -33 7 -33 -7z"/>
<path d="M1127 492 c-31 -12 -36 -18 -31 -36 16 -51 24 -66 36 -66 9 0 9 -3
-2 -10 -8 -5 -35 -6 -59 -3 -41 6 -44 5 -36 -13 19 -48 17 -61 -15 -81 l-31
-20 36 -27 c41 -31 39 -32 52 9 l10 30 180 3 181 2 7 40 c4 22 4 44 0 50 -3 5
-2 10 4 10 12 0 6 52 -8 79 -25 45 -101 27 -101 -24 0 -31 29 -62 41 -43 6 9
11 10 17 2 4 -6 14 -14 22 -17 9 -3 4 -6 -12 -6 -21 -1 -26 -5 -21 -17 5 -13
7 -13 14 -2 7 10 9 11 9 0 0 -7 5 -10 12 -6 6 4 8 3 4 -4 -3 -5 0 -13 6 -16 7
-3 1 -3 -14 0 -19 4 -29 1 -37 -13 -10 -16 -11 -15 -6 7 6 30 -3 46 -30 51
-11 3 -21 13 -23 24 -6 29 -32 55 -57 55 -11 0 -40 -14 -63 -31 l-41 -30 -3
58 -3 59 -38 -14z m297 -27 c3 3 2 -1 -4 -7 -18 -21 -11 -36 13 -31 16 3 18 2
8 -5 -7 -5 -11 -14 -7 -20 3 -6 -7 -4 -24 4 -32 17 -48 34 -30 34 6 0 8 4 5
10 -4 6 1 7 12 3 16 -6 17 -5 3 13 -14 17 -13 18 1 7 9 -7 19 -11 23 -8z
m-284 -1 c0 -8 -19 -13 -24 -6 -3 5 1 9 9 9 8 0 15 -2 15 -3z m6 -34 c0 -12
-4 -16 -9 -11 -5 5 -6 14 -3 20 10 15 12 14 12 -9z m160 -35 c3 -13 12 -29 20
-36 8 -6 14 -15 14 -19 0 -9 -42 -6 -58 4 -8 5 -10 2 -6 -8 3 -9 10 -14 14
-11 5 3 11 1 15 -5 12 -19 -27 -24 -41 -5 -13 17 -14 17 -14 2 0 -21 -4 -21
-35 -1 -14 9 -25 12 -25 6 0 -6 5 -12 11 -14 6 -2 -19 -4 -55 -3 -36 0 -66 3
-66 7 0 3 -3 15 -6 25 -6 14 -4 16 6 6 10 -9 17 -7 33 8 11 10 26 19 31 18 6
0 5 -3 -1 -6 -22 -8 -14 -18 16 -20 18 -1 31 4 35 12 6 18 32 20 42 3 5 -8 0
-9 -14 -6 -12 4 -22 2 -22 -2 0 -14 15 -19 37 -14 14 4 19 12 16 25 -6 23 25
38 37 18 5 -7 7 -16 5 -19 -2 -4 2 -7 9 -7 10 0 8 9 -6 34 -11 18 -15 33 -9
33 6 0 13 -11 17 -25z m-50 0 c-22 -17 -36 -19 -36 -7 0 14 12 22 34 22 21 -1
21 -1 2 -15z m-86 -20 c7 -9 8 -15 2 -15 -5 0 -12 7 -16 15 -3 8 -4 15 -2 15
2 0 9 -7 16 -15z m204 -30 c3 -9 0 -15 -9 -15 -9 0 -12 6 -9 15 4 8 7 15 9 15
2 0 5 -7 9 -15z m-10 -37 c-3 -4 -9 -8 -15 -8 -5 0 -9 4 -9 8 0 5 7 9 15 9 8
0 12 -4 9 -9z m66 2 c13 -8 13 -10 -2 -10 -9 0 -20 5 -23 10 -8 13 5 13 25 0z
m-372 -55 c-3 -3 -9 2 -12 12 -6 14 -5 15 5 6 7 -7 10 -15 7 -18z"/>
</g>
</svg>
