<?xml version="1.0" standalone="no"?>
<!DOCTYPE svg PUBLIC "-//W3C//DTD SVG 20010904//EN"
 "http://www.w3.org/TR/2001/REC-SVG-20010904/DTD/svg10.dtd">
<svg version="1.0" xmlns="http://www.w3.org/2000/svg"
 width="300.000000pt" height="89.000000pt" viewBox="0 0 300.000000 89.000000"
 preserveAspectRatio="xMidYMid meet">
<metadata>
Created by potrace 1.10, written by Peter Selinger 2001-2011
</metadata>
<g transform="translate(0.000000,89.000000) scale(0.100000,-0.100000)"
fill="#000000" stroke="none">
<path d="M1473 815 c25 -22 37 -25 115 -26 51 0 79 -4 67 -8 -13 -5 0 -10 45
-14 48 -5 75 -15 105 -36 44 -31 112 -47 135 -31 13 9 12 13 -5 26 -35 28 -78
42 -150 49 -38 4 -75 11 -81 16 -29 23 -132 49 -193 49 l-66 -1 28 -24z"/>
<path d="M1333 824 c-9 -4 -9 -11 -1 -30 11 -23 16 -25 75 -22 35 2 63 6 63 9
0 3 -10 15 -23 27 -22 21 -81 29 -114 16z"/>
<path d="M1218 775 c-49 -37 -88 -56 -187 -91 -8 -2 -12 -7 -9 -10 8 -8 118
36 172 70 38 23 59 29 93 27 24 -1 43 2 43 7 0 17 -27 32 -45 25 -13 -4 -16
-3 -11 5 11 18 6 15 -56 -33z"/>
<path d="M1682 738 c6 -16 36 -34 44 -26 3 4 4 14 1 23 -7 17 -51 21 -45 3z"/>
<path d="M1740 741 c0 -5 7 -17 16 -26 13 -12 20 -13 28 -5 8 8 6 15 -8 26
-23 16 -36 18 -36 5z"/>
<path d="M1570 724 c0 -4 8 -13 18 -20 12 -9 17 -26 17 -59 0 -33 -5 -50 -17
-59 -24 -18 -23 -21 11 -24 16 -1 34 5 41 13 12 14 5 20 -21 17 -4 -1 -3 13 3
31 12 39 -2 81 -32 97 -11 6 -20 8 -20 4z"/>
<path d="M1250 681 c0 -21 31 -31 105 -33 l80 -2 -85 -6 -85 -6 76 -2 c42 -1
91 1 108 4 59 12 31 24 -56 24 -57 0 -98 5 -115 14 -16 8 -28 11 -28 7z"/>
<path d="M1650 621 c0 -16 10 -20 68 -25 83 -7 244 5 249 19 2 6 -42 9 -122 6
-87 -2 -125 0 -125 8 0 6 -16 11 -35 11 -28 0 -35 -4 -35 -19z"/>
<path d="M1205 609 c17 -5 84 -11 150 -14 l120 -4 -125 14 c-69 7 -136 13
-150 13 -23 0 -23 0 5 -9z"/>
<path d="M1840 581 c-38 -6 -42 -8 -22 -14 26 -10 82 0 82 14 0 5 -3 8 -7 7
-5 0 -28 -4 -53 -7z"/>
<path d="M956 485 c-9 -14 -14 -25 -11 -26 26 -6 49 -1 53 10 3 9 0 12 -11 8
-11 -4 -13 0 -10 14 7 26 -2 24 -21 -6z"/>
<path d="M824 469 c-6 -10 -4 -11 26 -12 11 -1 20 3 20 8 0 12 -39 15 -46 4z"/>
<path d="M1063 420 c1 -41 6 -60 14 -60 9 0 13 18 13 60 0 45 -4 60 -14 60
-11 0 -14 -15 -13 -60z"/>
<path d="M1184 466 c-3 -8 -4 -20 -3 -27 1 -8 -1 -22 -5 -31 -15 -35 0 -48 54
-47 35 1 48 5 41 12 -7 7 -7 16 0 29 7 14 6 18 -5 18 -8 0 -16 -5 -18 -12 -2
-6 -9 -8 -16 -4 -9 5 -9 11 0 25 6 10 8 26 5 35 -8 20 -46 21 -53 2z"/>
<path d="M1720 430 c0 -44 -2 -50 -21 -50 -18 0 -21 5 -17 30 3 20 0 30 -9 30
-9 0 -13 -14 -13 -46 0 -37 -4 -47 -20 -51 -29 -8 -25 -23 6 -23 17 0 28 6 31
20 5 19 14 20 134 20 l129 0 0 40 c0 33 -3 40 -19 40 -35 0 -51 -12 -51 -36 0
-36 -38 -33 -42 4 -3 30 -38 42 -64 22 -12 -10 -14 -7 -14 19 0 21 -5 31 -15
31 -11 0 -15 -12 -15 -50z m88 -33 c3 -13 -3 -17 -27 -17 -20 0 -31 5 -31 14
0 29 53 32 58 3z m112 3 c0 -11 -7 -20 -15 -20 -15 0 -21 21 -8 33 12 13 23 7
23 -13z"/>
<path d="M2100 465 c0 -7 11 -12 25 -12 14 0 25 5 25 12 0 7 -11 13 -25 13
-14 0 -25 -6 -25 -13z"/>
<path d="M2170 420 c0 -41 4 -60 13 -60 8 0 12 19 13 60 1 44 -2 60 -12 60
-10 0 -14 -16 -14 -60z"/>
<path d="M1368 443 c-21 -5 -22 -16 -7 -45 8 -14 8 -23 0 -31 -28 -28 6 -75
43 -61 25 9 19 24 -9 24 -26 0 -33 14 -14 26 7 4 49 6 95 5 l84 -2 0 40 c0 30
-4 41 -15 41 -10 0 -15 -10 -15 -30 0 -23 -4 -30 -20 -30 -16 0 -20 7 -20 30
0 20 -5 30 -15 30 -11 0 -13 -8 -8 -30 5 -28 4 -30 -26 -30 -31 0 -31 0 -15
25 9 14 15 27 13 29 -8 8 -54 14 -71 9z m42 -26 c0 -8 -3 -17 -7 -20 -9 -9
-34 13 -27 24 8 14 34 11 34 -4z"/>
<path d="M677 422 c-22 -24 -21 -39 3 -54 29 -19 24 -28 -15 -28 -31 0 -35 3
-35 26 0 30 -23 28 -28 -3 -4 -30 21 -45 70 -41 35 2 44 7 46 25 2 14 -4 26
-18 33 -17 9 -19 14 -9 26 6 8 18 14 25 14 8 0 14 5 14 10 0 17 -36 11 -53 -8z"/>
<path d="M770 394 c0 -37 -4 -47 -20 -51 -29 -8 -25 -23 6 -23 17 0 28 6 31
20 5 18 14 20 97 21 50 1 106 0 124 -1 31 -1 32 0 32 39 0 30 -4 41 -15 41
-10 0 -15 -10 -15 -31 0 -35 -23 -36 -28 -1 -5 30 -22 28 -22 -3 0 -16 -6 -25
-15 -25 -9 0 -15 10 -15 26 0 16 -5 24 -12 21 -7 -2 -12 -14 -10 -25 3 -18 -2
-22 -22 -22 -22 0 -26 4 -26 30 0 17 -4 30 -10 30 -5 0 -10 -13 -10 -30 0 -26
-4 -30 -26 -30 -23 0 -26 3 -22 30 3 20 0 30 -9 30 -9 0 -13 -14 -13 -46z"/>
<path d="M2040 390 c0 -39 -3 -50 -14 -48 -8 2 -15 -1 -16 -7 -2 -20 39 -16
52 4 9 14 23 21 45 21 32 0 33 2 33 40 0 22 -4 40 -10 40 -5 0 -10 -13 -10
-30 0 -25 -4 -30 -25 -30 -21 0 -25 5 -25 30 0 20 -5 30 -15 30 -11 0 -15 -12
-15 -50z"/>
<path d="M2236 424 c-28 -27 -12 -64 27 -64 10 0 15 -4 12 -10 -3 -5 -17 -10
-31 -10 -13 0 -24 -4 -24 -10 0 -19 59 -11 72 10 10 15 24 20 54 20 44 0 68
18 62 46 -9 45 -69 42 -76 -5 -5 -33 -32 -26 -32 9 0 25 -4 30 -24 30 -14 0
-32 -7 -40 -16z m44 -24 c0 -11 -7 -20 -15 -20 -8 0 -15 9 -15 20 0 11 7 20
15 20 8 0 15 -9 15 -20z m105 -1 c0 -7 -8 -15 -17 -17 -18 -3 -25 18 -11 32
10 10 28 1 28 -15z"/>
<path d="M1500 271 c0 -5 6 -12 13 -15 6 -3 3 -4 -7 -3 -10 1 -21 -3 -23 -9
-2 -7 7 -11 22 -11 26 0 29 5 19 31 -7 17 -24 22 -24 7z"/>
<path d="M1800 195 c0 -47 4 -65 13 -65 10 0 13 18 13 65 0 47 -3 65 -13 65
-9 0 -13 -18 -13 -65z"/>
<path d="M1550 184 c0 -39 -23 -44 -28 -6 -4 29 -33 29 -29 1 1 -12 -4 -24
-10 -26 -8 -3 -13 5 -13 21 0 16 -6 26 -15 26 -9 0 -15 -9 -15 -25 0 -32 -19
-32 -45 1 -18 23 -24 25 -43 15 -26 -14 -29 -46 -4 -60 16 -9 16 -10 -2 -17
-23 -9 -51 7 -51 30 0 25 -20 24 -23 -2 -6 -37 16 -55 61 -49 55 7 68 23 40
47 -13 10 -23 21 -23 24 0 13 27 5 43 -14 14 -17 28 -19 97 -18 l80 2 0 43 c0
24 -4 43 -10 43 -5 0 -10 -16 -10 -36z"/>
<path d="M1723 195 l-28 -25 29 -24 30 -25 -28 -7 c-29 -7 -51 6 -51 31 0 24
-20 22 -23 -3 -5 -32 15 -52 50 -52 60 0 89 37 48 62 -27 17 -25 27 6 38 14 6
22 14 19 20 -10 16 -22 12 -52 -15z"/>
<path d="M1207 197 c-8 -7 -17 -24 -21 -39 -7 -30 0 -33 42 -22 27 8 29 24 2
24 -11 0 -20 5 -20 10 0 6 9 10 20 10 11 0 20 4 20 9 0 15 -27 20 -43 8z"/>
<path d="M1304 68 c-3 -4 -4 -8 -2 -9 36 -8 48 -7 48 5 0 15 -38 18 -46 4z"/>
</g>
</svg>
